<?xml version="1.0" encoding="utf-8"?>
<!-- Generator: Adobe Illustrator 27.0.0, SVG Export Plug-In . SVG Version: 6.00 Build 0)  -->
<svg version="1.1" id="Layer_1" xmlns="http://www.w3.org/2000/svg" xmlns:xlink="http://www.w3.org/1999/xlink" x="0px" y="0px"
	 viewBox="0 0 3500 1000" style="enable-background:new 0 0 3500 1000;" xml:space="preserve">
<style type="text/css">
	.st0{fill:#FFFFFF;}
</style>
<g>
	<g>
		<path class="st0" d="M1595.7,366H1451v103h139.2v32.9H1451V642h-37.1V333h181.8L1595.7,366L1595.7,366z"/>
		<path class="st0" d="M1922.2,641.9h-181.8V333h37.1v276h144.7L1922.2,641.9L1922.2,641.9z"/>
		<path class="st0" d="M2284,517.6c0,38.7-12.1,69.9-36.2,93.7c-22.9,22.9-51.3,34.3-85.3,34.3s-62.5-11.4-85.4-34.3
			c-24.1-23.8-36.2-55-36.2-93.7V333h37.1v181.8c0,28.8,7.9,51.9,23.7,69.3c15.8,17.5,36,26.2,60.8,26.2c24.7,0,45-8.7,60.8-26.2
			s23.7-40.6,23.7-69.3V333h37.1L2284,517.6L2284,517.6z"/>
		<path class="st0" d="M2676,641.9h-46.9l-133.6-160.5h46.4c19.5,0,35.3-5.3,47.6-15.8c12.2-10.5,18.3-24.5,18.3-41.9
			s-6.1-31.3-18.3-41.9s-28.1-15.8-47.6-15.8h-60.3v276h-37.1V333h100.6c30.6,0,55.2,8.8,73.8,26.4c17.3,16.7,26,38.2,26,64.5
			c0,24.1-7.7,44.4-23.2,60.8s-34.6,24.6-57.5,24.6L2676,641.9z"/>
		<path class="st0" d="M3029.4,641.9h-46.9L2849,481.5h46.4c19.5,0,35.3-5.3,47.6-15.8c12.2-10.5,18.3-24.5,18.3-41.9
			s-6.1-31.3-18.3-41.9s-28.1-15.8-47.6-15.8h-60.3v276H2798V333h100.6c30.6,0,55.2,8.8,73.8,26.4c17.3,16.7,26,38.2,26,64.5
			c0,24.1-7.7,44.4-23.2,60.8s-34.6,24.6-57.5,24.6L3029.4,641.9z"/>
		<path class="st0" d="M3368.5,333l-116,171.6V642h-37.1V504.7l-116-171.6h44.5l90,131.3l90-131.3L3368.5,333L3368.5,333z"/>
	</g>
	<path class="st0" d="M331,921.1L331,921.1L331,921.1C331.1,921.1,331,921.1,331,921.1z M819.2,866.2l-171-108V577.1l-11.5-6.4
		l-5-2.8l-13.1-7.2l-18.2,9.9L589,577v181.2L417.3,866.5v0.1l-10.3,6.5l-14.3,9h-0.1l-40.8,25.8c12.2,8.1,24.9,15.6,38,22.5
		c6.8,3.6,13.7,7.1,20.7,10.4l208.1-131.4l204.9,129.4l-3.2-55.8L819.2,866.2z M1105.4,469.8c0.1-0.3,0.1-0.5,0-0.8v-0.1
		L889.8,350.7L904.4,108l-47.2,29.8l-14.4,9.1l-12.1,202.6L672,436.8v31.7l19.5,10.8l13,7.2l154.7-85.2l154.6,85.4l11.4,6.3
		l13.1,7.2l48.2,26.6l13,7.2c0,0,0,0,0.1-0.1c0.4-0.2,2.4-1.3,5.8-3.2c0.2-2.6,0.4-5.1,0.4-7.6c0.4-7.6,0.6-15.3,0.6-23.1
		C1106.4,489.9,1106.1,479.8,1105.4,469.8z M223.5,486.2L378.2,401l154.6,85.4h0.1l13-7.2l8-4.4l11.4-6.3v-31.7l-158.5-87.6
		l-11.7-201.9l-0.7-12.1l-1-16.9l-2.8-48.8c-13.2,7-26,14.6-38.4,22.7c-6.4,4.1-12.7,8.5-18.8,13l14.3,245.1l-185.4,102l48.2,26.6
		L223.5,486.2z M1013.8,513.8L859,598.9l-154.6-85.4h-0.1L679.8,500l-31.7-17.5V241.7l196.3-123.9L885.3,92
		c-12.3-8.1-25-15.6-38.1-22.5c-6.8-3.6-13.7-7.1-20.7-10.4L618.6,190.4L413.8,61l3.2,55.8l1,16.9l171,108v240.8l-23.7,13l-8,4.4
		l-179.2,98.6L199,499.6l-61.2-33.8l-5.1,2.8c-0.7,10.4-1.1,21-1.1,31.5c0,10.2,0.3,20.3,1,30.4h0.1l5.1,2.8l209.8,115.9L332.8,892
		l47.3-29.8l14.4-9.1l12.2-202.7l158.7-87.3l23.7-13l29.6-16.3l24.5,13.5l5.1,2.8l182.2,100.7l13.4,231l2.9,49.5
		c13.4-7.1,26.3-14.7,38.9-23.1c6.2-4,12.3-8.2,18.3-12.6l-14.4-245.9l185.4-102l-48.2-26.6L1013.8,513.8z"/>
</g>
</svg>
