<?xml version="1.0" encoding="utf-8"?>
<!-- Generator: Adobe Illustrator 27.0.0, SVG Export Plug-In . SVG Version: 6.00 Build 0)  -->
<svg version="1.1" id="Layer_1" xmlns="http://www.w3.org/2000/svg" xmlns:xlink="http://www.w3.org/1999/xlink" x="0px" y="0px"
	 viewBox="0 0 3500 1000" style="enable-background:new 0 0 3500 1000;" xml:space="preserve">
<style type="text/css">
	.st0{stroke:#231F20;stroke-miterlimit:10;}
	.st1{fill:#00C1BC;}
</style>
<g>
	<g>
		<path class="st0" d="M1595.4,365.7h-145v103.2h139.4v33h-139.4v140.3h-37.2V332.7h182.2L1595.4,365.7L1595.4,365.7z"/>
		<path class="st0" d="M1922.6,642.2h-182.2V332.7h37.2v276.5h145V642.2z"/>
		<path class="st0" d="M2285.1,517.7c0,38.7-12.1,70-36.2,93.9c-22.9,22.9-51.4,34.4-85.5,34.4s-62.6-11.5-85.5-34.4
			c-24.2-23.8-36.2-55.1-36.2-93.9v-185h37.2v182.2c0,28.8,7.9,52,23.7,69.5c15.8,17.5,36.1,26.3,60.9,26.3
			c24.8,0,45.1-8.8,60.9-26.3c15.8-17.5,23.7-40.7,23.7-69.5V332.7h37.2L2285.1,517.7L2285.1,517.7z"/>
		<path class="st0" d="M2677.8,642.2h-46.9L2497,481.4h46.5c19.5,0,35.4-5.3,47.6-15.9c12.2-10.6,18.4-24.6,18.4-42
			c0-17.4-6.1-31.4-18.4-42s-28.1-15.9-47.6-15.9H2483v276.5h-37.2V332.7h100.8c30.7,0,55.3,8.8,73.9,26.5
			c17.3,16.7,26,38.3,26,64.6c0,24.2-7.7,44.5-23.2,60.9c-15.5,16.4-34.7,24.6-57.6,24.6L2677.8,642.2z"/>
		<path class="st0" d="M3031.9,642.2h-46.9l-133.8-160.8h46.5c19.5,0,35.4-5.3,47.6-15.9c12.2-10.6,18.4-24.6,18.4-42
			c0-17.4-6.1-31.4-18.4-42s-28.1-15.9-47.6-15.9h-60.4v276.5H2800V332.7h100.8c30.7,0,55.3,8.8,73.9,26.5
			c17.3,16.7,26,38.3,26,64.6c0,24.2-7.7,44.5-23.2,60.9c-15.5,16.4-34.7,24.6-57.6,24.6L3031.9,642.2z"/>
		<path class="st0" d="M3371.6,332.7l-116.2,172v137.6h-37.2V504.7l-116.2-172h44.6l90.2,131.5l90.1-131.5L3371.6,332.7
			L3371.6,332.7z"/>
	</g>
	<path class="st1" d="M328.3,921.9L328.3,921.9L328.3,921.9C328.4,921.9,328.3,921.9,328.3,921.9z M817.4,866.9L646.1,758.7V577.3
		l-11.6-6.4l-5-2.8l-13.1-7.2l-18.2,10l-11.4,6.3v181.5l-172,108.6v0.1l-10.3,6.5l-14.3,9h-0.1l-40.9,25.8
		c12.3,8.1,25,15.7,38.1,22.6c6.8,3.6,13.7,7.1,20.7,10.4l208.5-131.6l205.2,129.6l-3.3-55.9L817.4,866.9z M1104.2,469.7
		c0.1-0.3,0.1-0.5,0-0.8v-0.1l-216-118.5l14.6-243.2l-47.3,29.9l-14.5,9.1l-12.2,203l-159,87.5v31.7l19.6,10.8l13,7.2l155-85.3
		l154.9,85.5l11.4,6.3l13.2,7.2l48.3,26.7l13,7.2c0,0,0,0,0.1-0.1c0.4-0.2,2.4-1.3,5.8-3.2c0.2-2.6,0.4-5.1,0.4-7.7
		c0.4-7.7,0.6-15.4,0.6-23.1C1105.2,489.9,1104.9,479.8,1104.2,469.7z M220.5,486.1l155.1-85.3l154.9,85.5h0.1l13-7.2l8.1-4.5
		l11.4-6.3v-31.8l-158.8-87.8l-11.7-202.3l-0.7-12.2l-1-17L388,68.6c-13.2,7-26,14.6-38.5,22.8c-6.4,4.2-12.7,8.5-18.8,13L345,350
		L159.2,452.2l48.3,26.7L220.5,486.1z M1012.4,513.8l-155.1,85.3l-154.9-85.5h-0.1L677.9,500l-31.8-17.5V241.2l196.7-124.2l41-25.8
		c-12.3-8.1-25-15.7-38.1-22.6c-6.8-3.6-13.8-7.1-20.8-10.4L616.5,189.8L411.2,60.2l3.3,55.9l1,16.9l171.3,108.2v241.2l-23.7,13
		l-8.1,4.5l-179.6,98.8L196,499.6l-61.4-33.9l-5.2,2.8c-0.7,10.4-1.1,21-1.1,31.6c0,10.2,0.3,20.3,1,30.4h0.1l5.2,2.8l210.2,116.1
		l-14.6,243.2l47.4-29.9l14.4-9.1l12.2-203.1l159-87.5l23.7-13l29.6-16.3l24.5,13.5l5.1,2.8l182.5,100.8l13.5,231.4L845,932
		c13.4-7.1,26.4-14.8,39-23.1c6.2-4,12.3-8.2,18.3-12.6L888,650l185.8-102.2l-48.3-26.7L1012.4,513.8z"/>
</g>
</svg>
